<svg width="256" height="256" viewBox="0 0 256 256" fill="none" xmlns="http://www.w3.org/2000/svg">
  <rect width="256" height="256" rx="56" fill="#111827"/>
  <path d="M52 88C52 76.9543 60.9543 68 72 68H112L128 84H184C195.046 84 204 92.9543 204 104V168C204 179.046 195.046 188 184 188H72C60.9543 188 52 179.046 52 168V88Z" fill="#F59E0B"/>
  <path d="M52 108C52 96.9543 60.9543 88 72 88H184C195.046 88 204 96.9543 204 108V168C204 179.046 195.046 188 184 188H72C60.9543 188 52 179.046 52 168V108Z" fill="#FBBF24"/>
  <rect x="84" y="120" width="88" height="12" rx="6" fill="#111827" opacity="0.9"/>
  <rect x="84" y="144" width="64" height="12" rx="6" fill="#111827" opacity="0.7"/>
</svg>